<svg
  xmlns="http://www.w3.org/2000/svg"
  fill="#ffd42a"
  viewBox="0 0 161.396 76.226"
>
  <path
    d="M142.966 8.696c.02.47.06.94.06 1.431v55.79c0 .51-.04 1-.08 1.634H76.305v-51.15H26.748v42.894h34.577V29.459H41.012v14.96h6.703v-7.991H54.5v16.021H33.553V23.267h35.804v44.264H18.452c-.041-.572-.082-1.002-.082-1.43v-56.3c0-.369.04-.736.061-1.125h66.968c.02.552.081 1.083.081 1.635 0 16.124 0 32.227.02 48.35 0 .43.062.839.103 1.247h49.434V17.034h-34.578v29.652h20.313V31.871h-6.785v7.99h-6.703V23.839h20.804v29.142H92.387c-.041-.573-.082-1.063-.082-1.553V10.025c0-.45.04-.879.061-1.328h50.599z"
  />
</svg>
