<svg xmlns="http://www.w3.org/2000/svg" xml:space="preserve" viewBox="0 0 1303.433 221.518">
  <g fill="#777777">
  <path d="M511.778 131.841c.923-2.076 3.768-2.307 5.767-2.46 6.15-.308 12.302-.154 18.453-.077 3.23.077 5.613 1.23 6.228 4.92 1.23 7.997 6.536 12.226 13.994 13.072 5.613.615 11.38.153 17.07-.615 4.459-.616 7.073-4.23 7.458-8.612.384-4.844-1.077-7.92-5.767-9.688-5.382-2-11.072-3.076-16.531-4.844-8.689-2.922-17.454-5.69-25.912-9.227-12.38-5.228-18.684-15.147-19.3-28.449-.614-13.455 5.152-23.682 16.378-30.91C548.3 43.035 578.98 44.65 596.28 58.336c7.612 5.997 11.15 14.148 11.764 23.605.231 3.998-1.23 5.843-5.228 6.074-6.151.23-12.302.308-18.377-.154-1.845-.153-4.229-1.999-5.074-3.767-5.536-10.61-20.222-14.994-30.602-8.766-5.844 3.46-6.69 10.304-.846 13.61 6.536 3.69 13.917 6.15 21.068 8.765 6.458 2.384 13.225 3.998 19.683 6.382 19.146 6.997 25.143 22.836 21.53 40.444-2.538 12.071-9.996 20.606-21.222 24.912-20.068 7.766-39.983 7.535-58.974-3.69-9.765-5.768-15.916-14.148-17.992-25.451-.846-2.845-1.384-5.613-.231-8.458zM1231.769 76.865v87.423c0 6.382-1.23 7.612-7.613 7.69-5.382 0-10.764-.078-16.146 0-3.845 0-5.613-2.077-5.92-5.614-.155-1.23-.078-2.537-.078-3.844V58.95c0-1.538-.077-3.076.231-4.613.461-2.538 1.922-4.152 4.69-4.152 20.607.23 41.213-.308 61.742 1 18.915 1.23 32.063 16.838 33.063 35.753 1 18.376-6.92 31.37-22.913 39.905-.539.308-1 .692-1.846 1.384 4.46 6.536 8.843 12.918 13.225 19.376 3.46 5.075 7.151 9.996 10.38 15.224 1.307 2.076 3.999 4.537 2.307 7.92-1.23 1.384-4.613 1.076-6.459 1.153-5.997.154-11.994 0-18.069.077-4.536 0-7.996-1.768-10.61-5.69-6.536-9.918-13.225-19.76-19.76-29.679-1.154-1.768-2.077-3.921-2.23-5.997-.308-6.228-.231-12.533-.154-18.761.076-3.537 2.076-5.306 5.612-5.536 2.922-.154 5.92-.23 8.766-.846 7.996-1.615 12.456-7.843 11.764-15.84-.615-6.92-6.92-12.532-14.532-12.686-8.15-.154-16.454-.077-25.45-.077zM661.635 136.224c0 7.227-.077 13.84 0 20.452.23 17.223-.923 15.147-14.993 15.224-2.922 0-5.92.077-8.843 0-4.228-.077-6.074-1.768-6.381-5.997-.077-1.153-.077-2.307-.077-3.46V58.873c0-7.92 1.384-9.303 9.38-9.303 12.149 0 24.297-.154 36.446.076 11.302.231 22.451 1.461 32.293 7.92 11.38 7.458 16.762 18.146 17.685 31.448.922 12.994-1.846 24.604-11.38 34.062-7.612 7.612-17.07 11.072-27.526 12.071-7.228.692-14.532.615-21.837.846-1.23.077-2.614.154-4.767.23zm.308-25.681c8.534-.539 16.685-.462 24.45-1.769 7.612-1.23 12.38-7.92 12.38-15.07-.077-8.073-4.768-14.763-12.764-15.84-7.612-1.076-15.455-.537-23.22-.614-.231 0-.385.307-.77.615-.076 10.303-.076 20.914-.076 32.678zM884.537 110.773v18.454c.077 10.61 5.151 16.838 15.762 18.146 4.23.538 8.766.153 12.84-.923 5.537-1.461 9.15-5.382 9.996-11.38.77-5.074 2.46-6.458 7.69-6.535 4.613-.077 9.226 0 13.84 0 6.381.077 8.688 2.845 7.996 9.15-1.384 12.225-7.69 21.221-17.762 27.757-20.452 13.225-47.44 11.994-66.432-3-8.458-6.612-13.302-15.608-13.61-26.372-.46-14.917-.614-29.91-.538-44.827.077-22.836 14.225-38.905 38.368-43.134 16.608-2.922 32.37-.692 46.287 9.765 7.843 5.92 12.149 13.993 13.61 23.605.692 4.382-1.154 6.766-5.536 6.843-5.92.153-11.764.307-17.685-.077-1.768-.154-4.152-1.615-5.074-3.23-6.613-11.148-20.607-15.07-31.833-8.534-4.92 2.922-7.765 7.381-7.92 13.225-.076 6.997 0 13.994 0 21.067zM970.96 110.235c0-8.688-.769-17.454.154-26.065 1.615-15.301 10.765-25.835 24.528-31.832 17.992-7.843 36.06-7.612 53.592 1.614 10.918 5.69 17.453 14.686 19.53 26.835.845 5.074-1.077 7.458-6.382 7.535-4.844.077-9.765-.154-14.61.077-3.998.23-6.304-1.384-8.227-4.844-5.766-10.688-24.527-13.456-33.446-5.152-3.768 3.537-5.536 7.92-5.536 12.994 0 12.687-.077 25.297 0 37.984.077 10.38 6.15 17.223 16.53 18.145 4 .308 8.228-.077 12.15-1 5.92-1.383 9.15-5.612 10.38-11.533 1.153-5.69 2.23-6.381 8.073-6.381 4.844 0 9.765-.077 14.609 0 4.613.077 6.612 1.922 6.612 6.535 0 13.84-7.15 23.682-18.376 30.833-19.223 12.302-45.98 11.303-64.28-2.384-10.072-7.535-15.224-17.761-15.454-30.294-.154-7.689 0-15.378 0-22.99 0-.077.076-.077.153-.077zM1133.581 145.297h39.521c5.305 0 6.843 1.384 6.997 6.766.154 4.46.154 8.996 0 13.455-.154 4.844-1.922 6.46-6.69 6.46-26.757.076-53.514.076-80.272 0-4.46 0-6.228-1.77-6.382-6.306-.076-4.767-.153-9.457 0-14.224.154-4.614 1.769-6.151 6.382-6.151h40.444zM789.81 145.297h39.52c5.152 0 6.69 1.46 6.844 6.535.076 4.767.076 9.458 0 14.225-.077 4.075-1.923 5.92-5.92 5.92-27.143.077-54.285 0-81.427.077-3.383 0-5.459-1.615-5.612-4.998-.231-5.459-.308-10.995-.154-16.454.077-3.69 2.23-5.305 6.074-5.305 13.532.076 27.142 0 40.674 0zM1133.581 50.108h39.521c5.305 0 6.843 1.384 7.074 6.766.154 4.46.154 8.92 0 13.379-.154 4.536-2.23 6.535-6.766 6.535-26.681.077-53.438.077-80.119 0-4.306 0-6.228-2.076-6.382-6.458-.154-4.614-.077-9.227 0-13.764.077-4.844 1.769-6.458 6.536-6.458h40.136zM789.579 50.108h39.905c5.075 0 6.613 1.538 6.766 6.612.077 4.46.077 8.92 0 13.379-.076 4.69-1.922 6.612-6.458 6.612-26.68.077-53.438.077-80.119 0-4.382 0-6.15-1.537-6.458-5.843-.308-4.921-.385-9.996-.077-14.917.307-4.844 1.691-5.843 6.612-5.843h39.829zM789.502 124.306h-29.526c-5.92 0-7.612-1.615-7.842-7.382a174.5 174.5 0 0 1 0-12.686c.23-5.306 1.845-6.997 6.997-7.074 20.452-.077 40.905-.077 61.434 0 4.613 0 6.382 2.076 6.459 6.766.077 3.614 0 7.15 0 10.765 0 8.458-1.154 9.61-9.842 9.61h-27.68zM1133.504 124.306h-29.525c-6.151 0-7.92-1.845-7.997-8.074 0-4.075-.077-8.15 0-12.302.154-4.613 2-6.766 6.459-6.766a8263.17 8263.17 0 0 1 61.742 0c4.46 0 6.305 1.768 6.535 6.305.308 4.998.231 9.995 0 14.916-.23 4.23-2.383 5.844-7.38 5.844-9.843.077-19.838.077-29.834.077z"/>
</g>
  <path fill="#ffd42a" d="M468.793.077c.077 1.768.231 3.537.231 5.382v209.908c0 1.922-.154 3.767-.307 6.15H217.98V29.065H31.525v161.39H161.62V78.197H85.193v56.283h25.22v-30.063h25.527v60.28H57.13V54.9h134.71V221.44H.308C.154 219.288 0 217.673 0 216.059V4.229C0 2.845.154 1.46.23 0h251.967c.076 2.076.307 4.075.307 6.151 0 60.666 0 121.254.077 181.92 0 1.615.23 3.152.384 4.69H438.96V31.448H308.864v111.566h76.428V87.269h-25.527v30.064h-25.22V57.052h78.273v109.644H278.493c-.154-2.153-.308-3.998-.308-5.844V5.075c0-1.692.154-3.307.23-4.998h190.378z"/>
</svg>
